<svg 
  xmlns="http://www.w3.org/2000/svg" 
  width="55" 
  height="40" 
  viewBox="0 0 55 40">
  <metadata><?xpacket begin="﻿" id="W5M0MpCehiHzreSzNTczkc9d"?>
  <x:xmpmeta xmlns:x="adobe:ns:meta/" x:xmptk="Adobe XMP Core 5.6-c142 79.160924, 2017/07/13-01:06:39        ">
    <rdf:RDF xmlns:rdf="http://www.w3.org/1999/02/22-rdf-syntax-ns#">
       <rdf:Description rdf:about=""/>
    </rdf:RDF>
  </x:xmpmeta>
  <?xpacket end="w"?></metadata>
  <defs>
    <style>
      .cls-1 {
        fill: #fc5f45;
        fill-rule: evenodd;
      }
    </style>
  </defs>
  <path id="_" data-name="" class="cls-1" d="M47.266,39.279H0V8.332H47.266V39.279ZM45.547,10.052H1.719V37.56H45.547V10.052ZM9.453,6.612H7.734V0.6H55V31.542H48.984V29.823h4.3V2.315H9.453v4.3ZM42.969,21.227H35.234v-8.6h7.734v8.6ZM41.25,14.349h-4.3v5.158h4.3V14.349ZM27.5,34.981h1.719V12.63H27.5V34.981ZM4.3,16.068H24.922V14.349H4.3v1.719Zm0,4.3H22.344V18.648H4.3v1.719Zm0,4.3H23.2v-1.72H4.3v1.72Z"/>
</svg>                                                                                           